<?xml version="1.0" encoding="utf-8"?>
<!-- Generator: Adobe Illustrator 27.4.0, SVG Export Plug-In . SVG Version: 6.00 Build 0)  -->
<svg version="1.1" id="Layer_1" xmlns="http://www.w3.org/2000/svg" xmlns:xlink="http://www.w3.org/1999/xlink" x="0px" y="0px"
	 viewBox="0 0 380 110" style="enable-background:new 0 0 380 110;" xml:space="preserve">
<style type="text/css">
	.st0{fill:#30B5E9;}
	.st1{fill:#FFFFFF;}
</style>
<g>
	<g>
		<g>
			<path class="st0" d="M87.8,69.5c-6.1,0-11.1,4.3-11.1,9.5c0,5.3,5,9.5,11.1,9.5c6.1,0,11.1-4.3,11.1-9.5
				C98.8,73.7,93.8,69.5,87.8,69.5z"/>
			<ellipse class="st0" cx="87.8" cy="30.1" rx="11.1" ry="9.5"/>
			<path class="st0" d="M31.2,69.4c-6.1,0-11.1,4.3-11.1,9.5c0,5.3,5,9.5,11.1,9.5c7.2,0,8.1-6,14.1-6s7,6,14.1,6
				c6.1,0,11.1-4.3,11.1-9.5c0-5.3-5-9.5-11.1-9.5c-7.1,0-7.9,6-14.1,6S38.1,69.4,31.2,69.4z"/>
			<path class="st0" d="M59.5,45c-6.1,0-11.1,4.3-11.1,9.5c0,5.3,5,9.5,11.1,9.5c7,0,8.1-6,14.1-6s7.4,6,14.1,6
				c6.1,0,11.1-4.3,11.1-9.5c0-5.3-5-9.5-11.1-9.5c-7.7,0-7.9,6-14.1,6C67.5,51,66.7,45,59.5,45z"/>
		</g>
	</g>
	<g>
		<path class="st1" d="M128.8,89.8c-2.8,0-5.3-0.5-7.4-1.5s-3.9-2.6-5.1-4.9c-1.2-2.3-1.9-5.3-1.9-9s0.7-6.9,2-9.5
			c1.4-2.6,3.2-4.5,5.5-5.8c2.3-1.3,4.8-2,7.5-2c3.4,0,6.4,0.8,8.8,2.4V44.6h8.9v44.5h-7.7l-0.5-2.9c-1.4,1.2-2.9,2.1-4.5,2.7
			C132.9,89.5,131,89.8,128.8,89.8z M131.2,83.2c2.8,0,5.1-0.9,7-2.8V66.1c-1.9-1.6-4-2.4-6.5-2.4c-5.6,0-8.3,3.6-8.3,10.7
			c0,3.3,0.7,5.7,2,6.9C126.8,82.6,128.8,83.2,131.2,83.2z"/>
		<path class="st1" d="M169.7,89.8c-5.4,0-9.7-1.4-12.9-4.1c-3.2-2.7-4.8-6.8-4.8-12.3c0-5,1.3-8.9,4-11.9c2.7-2.9,6.6-4.4,11.9-4.4
			c4.8,0,8.6,1.3,11.1,3.8c2.6,2.5,3.9,5.8,3.9,9.9v5.7h-22.7c0.5,2.5,1.6,4.2,3.5,5.2c1.8,0.9,4.4,1.4,7.8,1.4
			c1.7,0,3.4-0.2,5.1-0.5c1.7-0.3,3.2-0.7,4.5-1.2v6.3c-1.5,0.7-3.2,1.2-5.1,1.5C174.1,89.6,172,89.8,169.7,89.8z M160.3,71.1h14.9
			v-1.7c0-1.8-0.5-3.2-1.6-4.3c-1.1-1-2.8-1.6-5.4-1.6c-3,0-5,0.6-6.2,1.8C160.9,66.5,160.3,68.4,160.3,71.1z"/>
		<path class="st1" d="M204.5,89.8c-5.6,0-9.9-1.4-12.9-4.2s-4.5-6.8-4.5-12.2c0-5.5,1.6-9.6,4.8-12.3c3.2-2.7,7.5-4,12.8-4
			c2.2,0,4.1,0.2,5.7,0.5c1.6,0.3,3.1,0.8,4.6,1.5v6.4c-1.1-0.5-2.4-0.9-3.8-1.3c-1.5-0.3-3-0.5-4.7-0.5c-3.3,0-5.9,0.7-7.7,2.1
			c-1.8,1.4-2.6,3.9-2.6,7.6c0,3.3,0.8,5.8,2.4,7.3c1.6,1.5,4.2,2.3,7.8,2.3c1.5,0,3-0.2,4.5-0.5c1.5-0.3,2.9-0.8,4.1-1.4v6.6
			C212.2,89.1,208.6,89.8,204.5,89.8z"/>
		<path class="st1" d="M223,89.1V64.4h-4.7l0.8-6.6h12.8v31.3H223z M222.3,52v-7h9.7v7H222.3z"/>
		<path class="st1" d="M249.9,89.8c-2.3,0-4.6-0.2-6.7-0.5s-3.8-0.7-5.1-1.2v-7.4c1.5,0.6,3.3,1.1,5.2,1.4c1.9,0.3,3.7,0.5,5.4,0.5
			c2.2,0,3.8-0.1,4.7-0.4s1.4-0.9,1.4-1.8c0-1.1-0.7-1.8-2.1-2.3c-1.4-0.5-3.4-1.2-6.2-2c-2.9-1-5.1-2.1-6.6-3.5
			c-1.5-1.4-2.3-3.4-2.3-6.1c0-3,1.1-5.3,3.3-6.9c2.2-1.6,5.7-2.4,10.5-2.4c1.9,0,3.8,0.1,5.5,0.4c1.7,0.3,3.2,0.6,4.4,1v7.3
			c-1.2-0.6-2.6-1-4.1-1.3c-1.5-0.3-3-0.4-4.3-0.4c-1.9,0-3.4,0.1-4.5,0.4c-1.1,0.3-1.7,0.8-1.7,1.7c0,1,0.6,1.7,1.8,2
			c1.2,0.4,3.1,1,5.6,1.8c2.5,0.8,4.5,1.6,5.9,2.4c1.4,0.9,2.4,1.9,3,3.1c0.6,1.2,0.9,2.7,0.9,4.5C263.8,86.6,259.2,89.8,249.9,89.8
			z"/>
		<path class="st1" d="M272.2,89.1V64.4h-4.7l0.8-6.6h12.8v31.3H272.2z M271.5,52v-7h9.7v7H271.5z"/>
		<path class="st1" d="M303.8,89.8c-5.9,0-10.2-1.4-12.9-4.3c-2.7-2.8-4.1-6.9-4.1-12.1c0-5.2,1.4-9.2,4.1-12.1
			c2.8-2.8,7-4.3,12.9-4.3c5.9,0,10.2,1.4,12.9,4.3c2.8,2.8,4.1,6.9,4.1,12.1c0,5.2-1.4,9.2-4.1,12.1
			C314,88.3,309.7,89.8,303.8,89.8z M303.8,82.2c2.9,0,4.9-0.6,6.1-1.9c1.2-1.3,1.8-3.6,1.8-6.8c0-3.2-0.6-5.5-1.8-6.8
			c-1.2-1.3-3.3-2-6.1-2c-2.8,0-4.8,0.7-6.1,2s-1.8,3.6-1.8,6.8c0,3.2,0.6,5.5,1.8,6.8C298.9,81.5,300.9,82.2,303.8,82.2z"/>
		<path class="st1" d="M326.4,89.1V57.8h8.3l0.3,3c1.3-1,2.9-1.8,4.9-2.5c2-0.7,4-1.1,6.2-1.1c4.1,0,7.2,1,9.1,2.9
			c1.9,1.9,2.8,4.9,2.8,9v20.1H349V69.5c0-2.1-0.4-3.6-1.3-4.5c-0.9-0.9-2.5-1.3-4.8-1.3c-1.4,0-2.7,0.3-4.1,0.9
			c-1.4,0.6-2.5,1.4-3.5,2.3v22.2H326.4z"/>
	</g>
	<g>
		<path class="st1" d="M121.4,37.6c-1,0-1.9-0.2-2.8-0.5c-0.9-0.4-1.5-0.9-2.1-1.6c-0.5-0.7-0.8-1.6-0.8-2.7c0-1.6,0.5-2.8,1.6-3.7
			s2.7-1.4,4.9-1.4h4.7v-0.4c0-1-0.3-1.7-0.8-2.1c-0.5-0.4-1.6-0.6-3.3-0.6c-1.8,0-3.5,0.3-5.2,0.8v-3.2c0.7-0.3,1.6-0.5,2.7-0.7
			c1.1-0.2,2.2-0.3,3.4-0.3c2.4,0,4.2,0.5,5.5,1.4c1.3,1,1.9,2.5,1.9,4.6v10h-3.9l-0.2-1.4c-0.6,0.6-1.4,1-2.3,1.3
			C123.9,37.5,122.8,37.6,121.4,37.6z M122.6,34.7c4.9,0,4.3-4.3,4.3-4.3h-4.6c-1.8,0-2.6,0.7-2.6,2.2
			C119.8,34,120.7,34.7,122.6,34.7z"/>
		<path class="st1" d="M143.6,37.6c-1.1,0-2.1-0.1-2.9-0.4c-0.8-0.3-1.6-0.7-2.3-1.3l-0.2,1.5h-3.9V14.9h3.3c0.6,0,1.1,0.5,1.1,1.1
			v6.4c0.6-0.4,1.4-0.7,2.2-0.9c0.8-0.2,1.6-0.3,2.5-0.3c2.3,0,4,0.6,5.4,1.9c1.3,1.3,2,3.3,2,6.2s-0.6,4.9-1.9,6.3
			C147.5,36.9,145.8,37.6,143.6,37.6z M142.3,34.3c1.4,0,2.5-0.4,3-1.3c0.6-0.8,0.9-2.1,0.9-3.8c0-1.8-0.3-3-0.9-3.7
			c-0.6-0.7-1.6-1.1-3-1.1c-0.7,0-1.3,0.1-1.9,0.3c-0.6,0.2-1.1,0.5-1.5,0.9v7.2c0.4,0.5,1,0.8,1.6,1.1
			C141,34.2,141.6,34.3,142.3,34.3z"/>
		<path class="st1" d="M178.8,37.6c-2.8,0-5-0.7-6.5-2.1c-1.5-1.4-2.2-3.4-2.2-6.1c0-2.8,0.8-4.8,2.4-6.2c1.6-1.4,3.7-2,6.4-2
			c1.1,0,2.1,0.1,2.9,0.2c0.8,0.2,1.6,0.4,2.3,0.8v3.2c-0.6-0.3-1.2-0.5-1.9-0.6c-0.7-0.2-1.5-0.2-2.4-0.2c-1.7,0-3,0.3-3.9,1
			c-0.9,0.7-1.3,2-1.3,3.8c0,1.7,0.4,2.9,1.2,3.7c0.8,0.8,2.1,1.2,3.9,1.2c0.8,0,1.5-0.1,2.3-0.2c0.7-0.2,1.4-0.4,2.1-0.7v3.3
			C182.7,37.3,180.9,37.6,178.8,37.6z"/>
		<path class="st1" d="M194.6,37.6c-2.8,0-5-0.7-6.5-2.1c-1.5-1.4-2.2-3.4-2.2-6.1c0-2.8,0.8-4.8,2.4-6.2c1.6-1.4,3.7-2,6.4-2
			c1.1,0,2.1,0.1,2.9,0.2c0.8,0.2,1.6,0.4,2.3,0.8v3.2c-0.6-0.3-1.2-0.5-1.9-0.6c-0.7-0.2-1.5-0.2-2.4-0.2c-1.7,0-3,0.3-3.9,1
			c-0.9,0.7-1.3,2-1.3,3.8c0,1.7,0.4,2.9,1.2,3.7c0.8,0.8,2.1,1.2,3.9,1.2c0.8,0,1.5-0.1,2.3-0.2c0.7-0.2,1.4-0.4,2.1-0.7v3.3
			C198.4,37.3,196.6,37.6,194.6,37.6z"/>
		<path class="st1" d="M208.2,37.6c-1.9,0-3.4-0.5-4.4-1.6c-1.1-1.1-1.6-2.6-1.6-4.6v-9.9h4.5v9.8c0,1.1,0.3,1.8,0.8,2.3
			c0.5,0.5,1.3,0.7,2.3,0.7c0.8,0,1.5-0.2,2.1-0.5c0.7-0.3,1.2-0.7,1.7-1.2V21.5h4.5v15.8h-4.2l-0.2-1.5c-0.7,0.5-1.4,1-2.3,1.3
			C210.5,37.5,209.5,37.6,208.2,37.6z"/>
		<path class="st1" d="M226.4,37.6c-1.2,0-2.3-0.1-3.4-0.2c-1.1-0.2-1.9-0.4-2.6-0.6V33c0.8,0.3,1.7,0.5,2.6,0.7
			c1,0.2,1.9,0.2,2.7,0.2c1.1,0,1.9-0.1,2.3-0.2c0.5-0.1,0.7-0.4,0.7-0.9c0-0.5-0.3-0.9-1-1.2s-1.7-0.6-3.1-1
			c-1.4-0.5-2.5-1.1-3.3-1.8c-0.8-0.7-1.2-1.7-1.2-3.1c0-1.5,0.5-2.7,1.6-3.5c1.1-0.8,2.9-1.2,5.3-1.2c1,0,1.9,0.1,2.8,0.2
			s1.6,0.3,2.2,0.5v3.7c-0.6-0.3-1.3-0.5-2.1-0.6c-0.8-0.1-1.5-0.2-2.2-0.2c-1,0-1.7,0.1-2.3,0.2c-0.6,0.1-0.8,0.4-0.8,0.9
			c0,0.5,0.3,0.8,0.9,1c0.6,0.2,1.6,0.5,2.8,0.9c1.3,0.4,2.2,0.8,3,1.2c0.7,0.4,1.2,1,1.5,1.6c0.3,0.6,0.4,1.4,0.4,2.3
			C233.3,36,231,37.6,226.4,37.6z"/>
		<path class="st1" d="M158,37.6c-1,0-1.9-0.2-2.8-0.5c-0.9-0.4-1.5-0.9-2.1-1.6c-0.5-0.7-0.8-1.6-0.8-2.7c0-1.6,0.5-2.8,1.6-3.7
			c1.1-0.9,2.7-1.4,4.9-1.4h4.7v-0.4c0-1-0.3-1.7-0.8-2.1c-0.5-0.4-1.6-0.6-3.3-0.6c-1.8,0-3.5,0.3-5.2,0.8v-3.2
			c0.7-0.3,1.6-0.5,2.7-0.7c1.1-0.2,2.2-0.3,3.4-0.3c2.4,0,4.2,0.5,5.5,1.4c1.3,1,1.9,2.5,1.9,4.6v10h-3.9l-0.2-1.4
			c-0.6,0.6-1.4,1-2.3,1.3C160.5,37.5,159.3,37.6,158,37.6z M159.2,34.7c4.9,0,4.3-4.3,4.3-4.3H159c-1.8,0-2.6,0.7-2.6,2.2
			C156.3,34,157.3,34.7,159.2,34.7z"/>
	</g>
</g>
</svg>
